<?xml version="1.0" encoding="UTF-8"?>
<!DOCTYPE svg PUBLIC "-//W3C//DTD SVG 1.1//EN" "http://www.w3.org/Graphics/SVG/1.1/DTD/svg11.dtd">
<!-- Creator: CorelDRAW 2021.5 -->
<svg xmlns="http://www.w3.org/2000/svg" xml:space="preserve" width="25.3998mm" height="25.3998mm" version="1.1" style="shape-rendering:geometricPrecision; text-rendering:geometricPrecision; image-rendering:optimizeQuality; fill-rule:evenodd; clip-rule:evenodd"
viewBox="0 0 2539.98 2539.98"
 xmlns:xlink="http://www.w3.org/1999/xlink"
 xmlns:xodm="http://www.corel.com/coreldraw/odm/2003">
 <defs>
  <style type="text/css">
   <![CDATA[
    .fil0 {fill:#D4EDFC}
    .fil5 {fill:#A2D9F7}
    .fil3 {fill:#04A1C4}
    .fil4 {fill:#0C8AA6}
    .fil6 {fill:#0C8AA6}
    .fil2 {fill:#0E404D}
    .fil1 {fill:#105566}
   ]]>
  </style>
 </defs>
 <g id="Слой_x0020_1">
  <metadata id="CorelCorpID_0Corel-Layer"/>
  <g id="_3195781181120">
   <rect class="fil0" x="191.25" y="2023.68" width="2157.47" height="184.93" rx="92.47" ry="92.47"/>
   <g>
    <polygon class="fil1" points="1304.86,660.1 2087.9,660.1 2087.9,2104.1 1304.86,2104.1 "/>
    <polygon class="fil2" points="1261.6,660.1 1469.17,660.1 1469.17,2104.1 1261.6,2104.1 "/>
    <polygon class="fil3" points="452.05,416.62 1255.16,416.62 1255.16,2104.1 452.05,2104.1 "/>
    <polygon class="fil1" points="591.51,416.62 1115.7,416.62 1115.7,331.37 591.51,331.37 "/>
    <polygon class="fil4" points="1255.16,1466.11 1255.16,1660.15 986.65,1781.77 986.65,2015.57 1255.16,2015.57 1255.16,2104.1 809.59,2104.1 809.59,1920.06 782.61,1932.28 782.61,1680.14 "/>
    <polygon class="fil1" points="1304.86,416.62 1232.45,416.62 1232.45,2104.1 1304.86,2104.1 "/>
    <polygon class="fil2" points="1170.75,331.37 1098.34,331.37 1098.34,416.62 1170.75,416.62 "/>
    <polygon class="fil1" points="1049.6,1604.17 1112.05,1604.17 1112.05,1736.87 1049.6,1736.87 "/>
    <polygon class="fil1" points="1049.6,1803.22 1112.05,1803.22 1112.05,1935.92 1049.6,1935.92 "/>
    <polygon class="fil1" points="898.13,1803.22 960.57,1803.22 960.57,1935.92 898.13,1935.92 "/>
    <polygon class="fil1" points="746.64,1803.22 809.09,1803.22 809.09,1935.92 746.64,1935.92 "/>
    <polygon class="fil1" points="898.13,1604.17 960.57,1604.17 960.57,1736.87 898.13,1736.87 "/>
    <polygon class="fil1" points="746.64,1604.17 809.09,1604.17 809.09,1736.87 746.64,1736.87 "/>
    <polygon class="fil1" points="595.16,1604.17 657.61,1604.17 657.61,1736.87 595.16,1736.87 "/>
    <polygon class="fil1" points="1049.6,1405.13 1112.05,1405.13 1112.05,1537.83 1049.6,1537.83 "/>
    <polygon class="fil5" points="898.13,1405.13 960.57,1405.13 960.57,1537.83 898.13,1537.83 "/>
    <polygon class="fil1" points="746.64,1405.13 809.09,1405.13 809.09,1537.83 746.64,1537.83 "/>
    <polygon class="fil5" points="595.16,1405.13 657.61,1405.13 657.61,1537.83 595.16,1537.83 "/>
    <polygon class="fil1" points="1049.6,1206.08 1112.05,1206.08 1112.05,1338.78 1049.6,1338.78 "/>
    <polygon class="fil1" points="898.13,1206.08 960.57,1206.08 960.57,1338.78 898.13,1338.78 "/>
    <polygon class="fil5" points="746.64,1206.08 809.09,1206.08 809.09,1338.78 746.64,1338.78 "/>
    <polygon class="fil1" points="595.16,1206.08 657.61,1206.08 657.61,1338.78 595.16,1338.78 "/>
    <polygon class="fil5" points="1049.6,1007.04 1112.05,1007.04 1112.05,1139.73 1049.6,1139.73 "/>
    <polygon class="fil5" points="898.13,1007.04 960.57,1007.04 960.57,1139.73 898.13,1139.73 "/>
    <polygon class="fil1" points="746.64,1007.04 809.09,1007.04 809.09,1139.73 746.64,1139.73 "/>
    <polygon class="fil1" points="595.16,1007.04 657.61,1007.04 657.61,1139.73 595.16,1139.73 "/>
    <polygon class="fil5" points="1049.6,608.95 1112.05,608.95 1112.05,741.64 1049.6,741.64 "/>
    <polygon class="fil5" points="898.13,608.95 960.57,608.95 960.57,741.64 898.13,741.64 "/>
    <polygon class="fil1" points="746.64,608.95 809.09,608.95 809.09,741.64 746.64,741.64 "/>
    <polygon class="fil1" points="595.16,608.95 657.61,608.95 657.61,741.64 595.16,741.64 "/>
    <polygon class="fil1" points="1049.6,807.99 1112.05,807.99 1112.05,940.69 1049.6,940.69 "/>
    <polygon class="fil1" points="898.13,807.99 960.57,807.99 960.57,940.69 898.13,940.69 "/>
    <polygon class="fil5" points="746.64,807.99 809.09,807.99 809.09,940.69 746.64,940.69 "/>
    <polygon class="fil1" points="595.16,807.99 657.61,807.99 657.61,940.69 595.16,940.69 "/>
    <polygon class="fil1" points="595.16,1803.22 657.61,1803.22 657.61,1935.92 595.16,1935.92 "/>
    <polygon class="fil2" points="1049.6,1604.17 1066,1604.17 1066,1736.87 1049.6,1736.87 "/>
    <polygon class="fil2" points="1049.6,1803.22 1066,1803.22 1066,1935.92 1049.6,1935.92 "/>
    <polygon class="fil2" points="898.12,1803.22 914.52,1803.22 914.52,1935.92 898.12,1935.92 "/>
    <polygon class="fil2" points="746.64,1803.22 763.04,1803.22 763.04,1935.92 746.64,1935.92 "/>
    <polygon class="fil2" points="898.12,1604.17 914.52,1604.17 914.52,1736.87 898.12,1736.87 "/>
    <polygon class="fil2" points="746.64,1604.17 763.04,1604.17 763.04,1736.87 746.64,1736.87 "/>
    <polygon class="fil2" points="595.16,1604.17 611.56,1604.17 611.56,1736.87 595.16,1736.87 "/>
    <polygon class="fil2" points="1049.6,1405.13 1066,1405.13 1066,1537.83 1049.6,1537.83 "/>
    <polygon class="fil2" points="898.12,1405.13 914.52,1405.13 914.52,1537.83 898.12,1537.83 "/>
    <polygon class="fil2" points="746.64,1405.13 763.04,1405.13 763.04,1537.83 746.64,1537.83 "/>
    <polygon class="fil2" points="595.16,1405.13 611.56,1405.13 611.56,1537.83 595.16,1537.83 "/>
    <polygon class="fil2" points="1049.6,1206.08 1066,1206.08 1066,1338.78 1049.6,1338.78 "/>
    <polygon class="fil2" points="898.12,1206.08 914.52,1206.08 914.52,1338.78 898.12,1338.78 "/>
    <polygon class="fil2" points="746.64,1206.08 763.04,1206.08 763.04,1338.78 746.64,1338.78 "/>
    <polygon class="fil2" points="595.16,1206.08 611.56,1206.08 611.56,1338.78 595.16,1338.78 "/>
    <polygon class="fil2" points="1049.6,1007.04 1066,1007.04 1066,1139.73 1049.6,1139.73 "/>
    <polygon class="fil2" points="898.12,1007.04 914.52,1007.04 914.52,1139.73 898.12,1139.73 "/>
    <polygon class="fil2" points="746.64,1007.04 763.04,1007.04 763.04,1139.73 746.64,1139.73 "/>
    <polygon class="fil2" points="595.16,1007.04 611.56,1007.04 611.56,1139.73 595.16,1139.73 "/>
    <polygon class="fil2" points="1049.6,608.95 1066,608.95 1066,741.64 1049.6,741.64 "/>
    <polygon class="fil2" points="898.12,608.95 914.52,608.95 914.52,741.64 898.12,741.64 "/>
    <polygon class="fil5" points="1564.07,1530.42 1673.28,1530.42 1673.28,1654.85 1564.07,1654.85 "/>
    <polygon class="fil3" points="1638.78,1530.42 1692.15,1530.42 1692.15,1654.85 1638.78,1654.85 "/>
    <polygon class="fil2" points="746.64,608.95 763.04,608.95 763.04,741.64 746.64,741.64 "/>
    <polygon class="fil2" points="595.16,608.95 611.56,608.95 611.56,741.64 595.16,741.64 "/>
    <polygon class="fil2" points="1049.6,807.99 1066,807.99 1066,940.69 1049.6,940.69 "/>
    <polygon class="fil2" points="898.12,807.99 914.52,807.99 914.52,940.69 898.12,940.69 "/>
    <polygon class="fil2" points="746.64,807.99 763.04,807.99 763.04,940.69 746.64,940.69 "/>
    <polygon class="fil2" points="595.16,807.99 611.56,807.99 611.56,940.69 595.16,940.69 "/>
    <polygon class="fil2" points="595.16,1803.22 611.56,1803.22 611.56,1935.92 595.16,1935.92 "/>
    <polygon class="fil0" points="898.12,1782.93 1384.16,1562.79 1870.18,1782.93 1870.18,2104.1 898.12,2104.1 "/>
    <polygon class="fil3" points="871.14,1737.06 1384.16,1504.7 1897.17,1737.06 1897.17,1795.15 1384.16,1562.79 871.14,1795.15 "/>
    <polygon class="fil5" points="898.12,1782.93 1384.16,1562.79 1870.18,1782.93 1870.18,1841.02 1384.16,1620.88 898.12,1841.02 "/>
    <polygon class="fil1" points="1580.15,1844.13 1642.59,1844.13 1642.59,1976.83 1580.15,1976.83 "/>
    <polygon class="fil1" points="1428.67,1844.13 1491.11,1844.13 1491.11,1976.83 1428.67,1976.83 "/>
    <polygon class="fil1" points="1277.19,1844.13 1339.63,1844.13 1339.63,1976.83 1277.19,1976.83 "/>
    <polygon class="fil1" points="1125.71,1844.13 1188.15,1844.13 1188.15,1976.83 1125.71,1976.83 "/>
    <polygon class="fil2" points="1580.15,1844.13 1596.55,1844.13 1596.55,1976.83 1580.15,1976.83 "/>
    <polygon class="fil2" points="1428.67,1844.13 1445.07,1844.13 1445.07,1976.83 1428.67,1976.83 "/>
    <polygon class="fil2" points="1277.19,1844.13 1293.59,1844.13 1293.59,1976.83 1277.19,1976.83 "/>
    <polygon class="fil2" points="1125.71,1844.13 1142.1,1844.13 1142.1,1976.83 1125.71,1976.83 "/>
    <polygon class="fil5" points="898.12,2104.1 1870.18,2104.1 1870.18,2047.75 898.12,2047.75 "/>
    <polygon class="fil6" points="1892.38,807.99 1954.83,807.99 1954.83,940.69 1892.38,940.69 "/>
    <polygon class="fil6" points="1740.91,807.99 1803.35,807.99 1803.35,940.69 1740.91,940.69 "/>
    <polygon class="fil6" points="1589.42,807.99 1651.87,807.99 1651.87,940.69 1589.42,940.69 "/>
    <polygon class="fil6" points="1437.94,807.99 1500.38,807.99 1500.38,940.69 1437.94,940.69 "/>
    <polygon class="fil5" points="1892.38,1007.04 1954.83,1007.04 1954.83,1139.73 1892.38,1139.73 "/>
    <polygon class="fil5" points="1740.91,1007.04 1803.35,1007.04 1803.35,1139.73 1740.91,1139.73 "/>
    <polygon class="fil6" points="1589.42,1007.04 1651.87,1007.04 1651.87,1139.73 1589.42,1139.73 "/>
    <polygon class="fil6" points="1437.94,1007.04 1500.38,1007.04 1500.38,1139.73 1437.94,1139.73 "/>
    <polygon class="fil6" points="1892.38,1206.08 1954.83,1206.08 1954.83,1338.78 1892.38,1338.78 "/>
    <polygon class="fil6" points="1740.91,1206.08 1803.35,1206.08 1803.35,1338.78 1740.91,1338.78 "/>
    <polygon class="fil5" points="1589.42,1206.08 1651.87,1206.08 1651.87,1338.78 1589.42,1338.78 "/>
    <polygon class="fil6" points="1437.94,1206.08 1500.38,1206.08 1500.38,1338.78 1437.94,1338.78 "/>
    <polygon class="fil2" points="1892.38,807.99 1908.78,807.99 1908.78,940.69 1892.38,940.69 "/>
    <polygon class="fil2" points="1740.9,807.99 1757.3,807.99 1757.3,940.69 1740.9,940.69 "/>
    <polygon class="fil2" points="1589.42,807.99 1605.82,807.99 1605.82,940.69 1589.42,940.69 "/>
    <polygon class="fil1" points="1437.94,807.99 1454.34,807.99 1454.34,940.69 1437.94,940.69 "/>
    <polygon class="fil2" points="1892.38,1007.04 1908.78,1007.04 1908.78,1139.73 1892.38,1139.73 "/>
    <polygon class="fil2" points="1740.9,1007.04 1757.3,1007.04 1757.3,1139.73 1740.9,1139.73 "/>
    <polygon class="fil2" points="1589.42,1007.04 1605.82,1007.04 1605.82,1139.73 1589.42,1139.73 "/>
    <polygon class="fil1" points="1437.94,1007.04 1454.34,1007.04 1454.34,1139.73 1437.94,1139.73 "/>
    <polygon class="fil2" points="1892.38,1206.08 1908.78,1206.08 1908.78,1338.78 1892.38,1338.78 "/>
    <polygon class="fil2" points="1740.9,1206.08 1757.3,1206.08 1757.3,1338.78 1740.9,1338.78 "/>
    <polygon class="fil2" points="1589.42,1206.08 1605.82,1206.08 1605.82,1338.78 1589.42,1338.78 "/>
    <polygon class="fil1" points="1437.94,1206.08 1454.34,1206.08 1454.34,1338.78 1437.94,1338.78 "/>
   </g>
  </g>
 </g>
</svg>
