<?xml version="1.0" encoding="UTF-8"?>
<!DOCTYPE svg PUBLIC "-//W3C//DTD SVG 1.1//EN" "http://www.w3.org/Graphics/SVG/1.1/DTD/svg11.dtd">
<!-- Creator: CorelDRAW 2021.5 -->
<svg xmlns="http://www.w3.org/2000/svg" xml:space="preserve" width="25.3998mm" height="25.3998mm" version="1.1" style="shape-rendering:geometricPrecision; text-rendering:geometricPrecision; image-rendering:optimizeQuality; fill-rule:evenodd; clip-rule:evenodd"
viewBox="0 0 2539.98 2539.98"
 xmlns:xlink="http://www.w3.org/1999/xlink"
 xmlns:xodm="http://www.corel.com/coreldraw/odm/2003">
 <defs>
  <style type="text/css">
   <![CDATA[
    .fil5 {fill:#FEFEFE}
    .fil0 {fill:#D4EDFC}
    .fil4 {fill:#A2D9F7}
    .fil8 {fill:#04A1C4}
    .fil7 {fill:#0C8AA6}
    .fil1 {fill:#0E404D}
    .fil9 {fill:#105566}
    .fil6 {fill:#489FC0}
    .fil2 {fill:#04A1C4;fill-rule:nonzero}
    .fil3 {fill:#0C8AA6;fill-rule:nonzero}
   ]]>
  </style>
 </defs>
 <g id="Слой_x0020_1">
  <metadata id="CorelCorpID_0Corel-Layer"/>
  <g id="_3196297832480">
   <path class="fil0" d="M283.72 2023.69l1972.55 0c50.85,0 92.45,41.61 92.45,92.46l0 0.01c0,50.85 -41.6,92.46 -92.45,92.46l-1972.55 0c-50.86,0 -92.47,-41.61 -92.47,-92.46l0 -0.01c0,-50.85 41.61,-92.46 92.47,-92.46z"/>
   <path class="fil1" d="M507.34 1448.04l247.79 0c24.07,0 43.73,19.68 43.73,43.72l0 551.52c0,24.04 -19.66,43.72 -43.73,43.72l-247.79 0c-24.07,0 -43.75,-19.68 -43.75,-43.72l0 -551.52c0,-24.04 19.68,-43.72 43.75,-43.72z"/>
   <path class="fil1" d="M2018.07 1448.04l-247.8 0c-24.06,0 -43.73,19.68 -43.73,43.72l0 551.52c0,24.04 19.67,43.72 43.73,43.72l247.8 0c24.07,0 43.74,-19.68 43.74,-43.72l0 -551.52c0,-24.04 -19.67,-43.72 -43.74,-43.72z"/>
   <path class="fil2" d="M825.23 732.83l883.51 0c24.24,0 46.74,7.83 65.08,21.12 18.1,13.1 32.12,31.66 39.7,53.29l128.84 325.68c11.72,27.49 11.39,57.25 1.33,83.28 -10.23,26.44 -30.54,49 -58.45,61.33 -7.13,3.15 -14.49,5.49 -21.93,7.06 -7.39,1.57 -15.15,2.34 -23.06,2.34l-1.72 0.01 -571.54 -52.79 -571.55 52.79 -1.72 -0.01c-7.92,0 -15.67,-0.77 -23.07,-2.34 -7.43,-1.57 -14.78,-3.91 -21.91,-7.06 -27.91,-12.33 -48.22,-34.89 -58.45,-61.33 -10.06,-26.03 -10.4,-55.79 1.33,-83.27l128.82 -325.7c7.59,-21.62 21.6,-40.18 39.71,-53.28 18.34,-13.29 40.84,-21.12 65.08,-21.12zm441.76 74.04l-441.76 0c-8.16,0 -15.65,2.58 -21.68,6.95 -6.3,4.57 -11.13,11.01 -13.55,18.43l-0.72 2.16 -129.41 327c-4.13,9.36 -4.11,19.46 -0.74,28.17 3.37,8.72 10.11,16.18 19.4,20.28 2.5,1.1 5.01,1.91 7.46,2.43 2.28,0.48 4.41,0.76 6.34,0.86l574.66 -53.07 574.64 53.07c1.93,-0.1 4.06,-0.38 6.35,-0.86 2.46,-0.52 4.97,-1.33 7.47,-2.43 9.28,-4.1 16.02,-11.56 19.4,-20.28 3.36,-8.71 3.39,-18.81 -0.74,-28.17l-129.41 -327 -0.73 -2.16c-2.43,-7.42 -7.24,-13.86 -13.55,-18.43 -6.03,-4.37 -13.52,-6.95 -21.68,-6.95l-441.75 0z"/>
   <path class="fil3" d="M1271.01 732.83l437.73 0c24.24,0 46.74,7.83 65.08,21.12 18.1,13.1 32.12,31.66 39.7,53.29l128.84 325.68c11.72,27.49 11.39,57.25 1.33,83.28 -10.23,26.44 -30.54,49 -58.45,61.33 -7.13,3.15 -14.49,5.49 -21.93,7.06 -7.39,1.57 -15.15,2.34 -23.06,2.34l-1.72 0.01 -567.52 -52.42 0 -74.07 570.62 52.7c1.93,-0.1 4.06,-0.38 6.35,-0.86 2.46,-0.52 4.97,-1.33 7.47,-2.43 9.28,-4.1 16.02,-11.56 19.4,-20.28 3.36,-8.71 3.39,-18.81 -0.74,-28.17l-129.41 -327 -0.73 -2.16c-2.43,-7.42 -7.24,-13.86 -13.55,-18.43 -6.03,-4.37 -13.52,-6.95 -21.68,-6.95l-437.73 0 0 -74.04z"/>
   <path class="fil0" d="M825.23 769.85l441.76 0 441.75 0c32.84,0 60.68,21.37 70.38,50.97l128.82 325.69c16.45,37.21 -0.38,80.74 -37.59,97.19 -9.81,4.32 -20.04,6.34 -30.1,6.36l-573.26 -52.95 -573.27 52.95c-10.07,-0.02 -20.3,-2.04 -30.09,-6.36 -37.21,-16.45 -54.04,-59.98 -37.59,-97.19l128.82 -325.69c9.7,-29.6 37.54,-50.97 70.37,-50.97z"/>
   <path class="fil4" d="M1271.01 769.85l437.73 0c32.84,0 60.68,21.37 70.38,50.97l128.82 325.69c16.45,37.21 -0.38,80.74 -37.59,97.19 -9.81,4.32 -20.04,6.34 -30.1,6.36l-569.24 -52.58 0 -427.63z"/>
   <path class="fil5" d="M850.16 876.18l416.82 0 416.82 0c25.56,0 47.24,16.65 54.78,39.69l60.48 152.91 -1064.16 0 60.47 -152.91c7.56,-23.04 29.23,-39.69 54.79,-39.69z"/>
   <path class="fil6" d="M911.02 938.22l158.08 0c31.74,0 51.75,26.55 57.71,57.72l29.16 152.24 -331.82 0 29.14 -152.24c5.98,-31.18 25.98,-57.72 57.73,-57.72z"/>
   <path class="fil6" d="M1464.88 938.22l158.08 0c31.75,0 51.75,26.55 57.72,57.72l29.15 152.24 -331.82 0 29.14 -152.24c5.98,-31.18 25.98,-57.72 57.73,-57.72z"/>
   <path class="fil7" d="M1543.38 1077.96c80.58,0 145.9,65.32 145.9,145.9 0,4.11 -0.18,8.18 -0.51,12.21l-29.08 -2.69c0.26,-3.14 0.39,-6.32 0.39,-9.52 0,-64.46 -52.25,-116.71 -116.7,-116.71 -60.43,0 -110.14,45.92 -116.12,104.76l-29.06 -2.68c7.34,-73.71 69.54,-131.27 145.18,-131.27z"/>
   <path class="fil8" d="M442.25 1062.87l81.66 0c15.26,0 27.73,12.47 27.73,27.73l0 55.91 74.4 0 0 36.52 -102.13 0 -73.11 0 -40.89 0c-15.26,0 -27.73,-12.47 -27.73,-27.73l0 -32.35c0,-33.05 27.02,-60.08 60.07,-60.08z"/>
   <path class="fil7" d="M2090.46 1062.87l-81.67 0c-15.25,0 -27.72,12.47 -27.72,27.73l0 55.91 -74.4 0 0 36.52 102.12 0 73.12 0 40.89 0c15.26,0 27.73,-12.47 27.73,-27.73l0 -32.35c0,-33.05 -27.02,-60.08 -60.07,-60.08z"/>
   <path class="fil9" d="M2163.83 1477.19l-247.81 0c-24.07,0 -43.73,19.68 -43.73,43.72l0 551.52c0,24.04 19.66,43.72 43.73,43.72l247.81 0c24.06,0 43.73,-19.68 43.73,-43.72l0 -551.52c0,-24.04 -19.67,-43.72 -43.73,-43.72z"/>
   <path class="fil9" d="M361.57 1477.19l247.81 0c24.06,0 43.73,19.68 43.73,43.72l0 551.52c0,24.04 -19.67,43.72 -43.73,43.72l-247.81 0c-24.06,0 -43.73,-19.68 -43.73,-43.72l0 -551.52c0,-24.04 19.67,-43.72 43.73,-43.72z"/>
   <path class="fil8" d="M1269.99 1149.13l652.59 -2.86c13.12,-0.54 26.54,2.4 38.86,9.24l202.37 112.07c25.79,11.58 43.75,37.49 43.75,67.58l0 543.4c-0.01,18.95 -7.23,37.9 -21.69,52.35l-31.74 31.74c-13.45,13.8 -32.24,22.38 -53.04,22.38l-831.1 0 -831.1 0c-20.8,0 -39.6,-8.58 -53.04,-22.38l-31.74 -31.74c-14.46,-14.45 -21.68,-33.4 -21.69,-52.35l0 -543.4c0,-30.09 17.95,-56 43.74,-67.58l202.38 -112.07c12.32,-6.84 25.74,-9.78 38.86,-9.24l652.59 2.86z"/>
   <path class="fil7" d="M1271.01 1149.12l651.57 -2.85c13.12,-0.54 26.54,2.4 38.86,9.24l202.37 112.07c25.79,11.58 43.75,37.49 43.75,67.58l0 543.4c-0.01,18.95 -7.23,37.9 -21.69,52.35l-31.74 31.74c-13.45,13.8 -32.24,22.38 -53.04,22.38l-830.08 0 0 -835.91z"/>
   <path class="fil7" d="M1906.67 1146.3l-202.46 194.31 -849.7 0 -232.09 -194.39c1.5,-0.03 3,-0.01 4.48,0.05l643 2.86 636.77 -2.83z"/>
   <polygon class="fil9" points="1906.67,1146.3 1704.21,1340.61 1271.01,1340.61 1271.01,1149.12 "/>
   <polygon class="fil1" points="1764.75,1826.07 1852.2,2019.62 1720.56,2019.62 819.42,2019.62 687.78,2019.62 775.23,1826.07 "/>
   <path class="fil1" d="M799.2 1390.28l941.58 0c38.64,0 70.25,31.61 70.25,70.25l0 52.72c0,67.63 -55.33,122.96 -122.96,122.96l-836.17 0c-67.63,0 -122.95,-55.33 -122.95,-122.96l0 -52.72c0,-38.64 31.6,-70.25 70.25,-70.25z"/>
   <path class="fil9" d="M1762.54 1393.76c1.5,5.43 2.31,11.15 2.31,17.06l0 48.21c0,61.86 -50.6,112.47 -112.46,112.47l-764.81 0c-61.85,0 -112.46,-50.61 -112.46,-112.47l0 -48.21c0,-5.91 0.81,-11.63 2.31,-17.06 6.87,-2.26 14.18,-3.48 21.77,-3.48l941.58 0c7.58,0 14.89,1.22 21.76,3.48z"/>
   <path class="fil0" d="M467.95 1333.93l172.4 43.47c30.51,7.68 49.16,38.94 41.48,69.43l-6.97 27.63c-13.46,53.36 -67.06,80.56 -121.53,72.59l-91.51 -13.37c-54.46,-7.97 -86.06,-68.13 -72.59,-121.51l9.29 -36.76c7.68,-30.5 38.93,-49.16 69.43,-41.48z"/>
   <path class="fil4" d="M643.65 1378.34c28.53,9.02 45.59,39.12 38.18,68.49l-6.97 27.64c-13.46,53.35 -67.06,80.55 -121.51,72.58l-91.53 -13.38c-35.92,-5.24 -61.91,-33.21 -71.56,-66.99 9.36,5.92 20,10.05 31.68,11.75l91.5 13.37c54.46,7.98 108.06,-19.22 121.51,-72.58l6.98 -27.63c1.12,-4.43 1.66,-8.87 1.72,-13.25z"/>
   <path class="fil4" d="M1269.99 1411.94c55.94,0 101.29,45.35 101.29,101.31 0,55.94 -45.35,101.29 -101.29,101.29 -55.96,0 -101.31,-45.35 -101.31,-101.29 0,-55.96 45.35,-101.31 101.31,-101.31z"/>
   <path class="fil9" d="M1269.99 1449.87c35,0 63.37,28.37 63.37,63.38 0,34.99 -28.37,63.36 -63.37,63.36 -35,0 -63.37,-28.37 -63.37,-63.36 0,-35.01 28.37,-63.38 63.37,-63.38z"/>
   <path class="fil1" d="M495.67 1754.65c39.45,0 71.41,31.96 71.41,71.42 0,39.45 -31.96,71.42 -71.41,71.42 -39.45,0 -71.43,-31.97 -71.43,-71.42 0,-39.46 31.98,-71.42 71.43,-71.42z"/>
   <path class="fil1" d="M2044.3 1754.65c39.45,0 71.42,31.96 71.42,71.42 0,39.45 -31.97,71.42 -71.42,71.42 -39.45,0 -71.42,-31.97 -71.42,-71.42 0,-39.46 31.97,-71.42 71.42,-71.42z"/>
   <path class="fil0" d="M2072.03 1337.66l-172.41 43.47c-30.5,7.68 -49.16,38.94 -41.47,69.43l6.96 27.63c13.46,53.36 67.06,80.56 121.52,72.59l91.52 -13.37c54.45,-7.96 86.05,-68.13 72.59,-121.51l-9.28 -36.76c-7.69,-30.5 -38.93,-49.16 -69.43,-41.48z"/>
   <path class="fil4" d="M1896.32 1382.07c-28.53,9.02 -45.58,39.12 -38.17,68.49l6.96 27.64c13.46,53.35 67.06,80.55 121.51,72.58l91.53 -13.38c35.93,-5.24 61.91,-33.21 71.55,-66.99 -9.35,5.92 -19.98,10.04 -31.66,11.75l-91.52 13.38c-54.45,7.97 -108.06,-19.23 -121.51,-72.59l-6.97 -27.63c-1.12,-4.43 -1.67,-8.87 -1.72,-13.25z"/>
   <path class="fil5" d="M541.81 1389.06c23.32,0 42.24,18.91 42.24,42.26 0,23.33 -18.92,42.25 -42.24,42.25 -23.35,0 -42.27,-18.92 -42.27,-42.25 0,-23.35 18.92,-42.26 42.27,-42.26z"/>
   <path class="fil5" d="M468.39 1373.26c10.41,0 18.86,8.45 18.86,18.86 0,10.43 -8.45,18.87 -18.86,18.87 -10.43,0 -18.87,-8.44 -18.87,-18.87 0,-10.41 8.44,-18.86 18.87,-18.86z"/>
   <path class="fil5" d="M1998.17 1389.06c-23.34,0 -42.26,18.91 -42.26,42.26 0,23.33 18.92,42.25 42.26,42.25 23.34,0 42.26,-18.92 42.26,-42.25 0,-23.35 -18.92,-42.26 -42.26,-42.26z"/>
   <path class="fil5" d="M2071.59 1373.26c-10.42,0 -18.86,8.45 -18.86,18.86 0,10.43 8.44,18.87 18.86,18.87 10.41,0 18.87,-8.44 18.87,-18.87 0,-10.41 -8.46,-18.86 -18.87,-18.86z"/>
  </g>
 </g>
</svg>
