<?xml version="1.0" encoding="UTF-8"?>
<!DOCTYPE svg PUBLIC "-//W3C//DTD SVG 1.1//EN" "http://www.w3.org/Graphics/SVG/1.1/DTD/svg11.dtd">
<!-- Creator: CorelDRAW 2021.5 -->
<svg xmlns="http://www.w3.org/2000/svg" xml:space="preserve" width="33.8666mm" height="33.8666mm" version="1.1" style="shape-rendering:geometricPrecision; text-rendering:geometricPrecision; image-rendering:optimizeQuality; fill-rule:evenodd; clip-rule:evenodd"
viewBox="0 0 3386.66 3386.66"
 xmlns:xlink="http://www.w3.org/1999/xlink"
 xmlns:xodm="http://www.corel.com/coreldraw/odm/2003">
 <defs>
  <style type="text/css">
   <![CDATA[
    .fil15 {fill:#FEFEFE}
    .fil10 {fill:#FEFEFE}
    .fil0 {fill:#D4EDFC}
    .fil3 {fill:#A2D9F7}
    .fil4 {fill:#87C9EC}
    .fil16 {fill:#69B7E2}
    .fil11 {fill:#04A1C4}
    .fil8 {fill:#0C8AA6}
    .fil1 {fill:#0E404D}
    .fil2 {fill:#105566}
    .fil14 {fill:#489FC0}
    .fil5 {fill:#69B7E2;fill-rule:nonzero}
    .fil6 {fill:#69B7E2;fill-rule:nonzero}
    .fil12 {fill:#04A1C4;fill-rule:nonzero}
    .fil13 {fill:#0C8AA6;fill-rule:nonzero}
    .fil7 {fill:#0E404D;fill-rule:nonzero}
    .fil9 {fill:#105566;fill-rule:nonzero}
   ]]>
  </style>
 </defs>
 <g id="Слой_x0020_1">
  <metadata id="CorelCorpID_0Corel-Layer"/>
  <g id="_1448542056384">
   <rect class="fil0" x="213.12" y="2670.28" width="2960.42" height="253.75" rx="126.88" ry="126.88"/>
   <rect class="fil1" x="672.58" y="462.62" width="1643.27" height="1849.84" rx="52.7" ry="59.45"/>
   <path class="fil2" d="M2375.54 1386.79l-76.27 0c-21.39,0 -38.88,17.51 -38.88,38.87l0 148.39 -47.56 0 2.28 25.74 45.28 0 0 55.51 -40.37 0 2.28 25.74 40.39 0c5.41,14.98 19.81,25.76 36.58,25.76l76.27 0c21.36,0 38.87,-17.49 38.87,-38.88l0 -242.26c0,-21.39 -17.48,-38.87 -38.87,-38.87z"/>
   <path class="fil2" d="M612.88 1386.79l76.27 0c21.39,0 38.88,17.51 38.88,38.87l0 148.39 47.56 0 -2.28 25.74 -45.28 0 0 55.51 40.37 0 -2.28 25.74 -40.38 0c-5.41,14.98 -19.82,25.76 -36.59,25.76l-76.27 0c-21.36,0 -38.87,-17.49 -38.87,-38.88l0 -242.26c0,-21.39 17.49,-38.87 38.87,-38.87z"/>
   <rect class="fil1" x="947.95" y="2198.82" width="255.68" height="487.26" rx="33.35" ry="45.15"/>
   <rect class="fil1" x="1784.83" y="2198.82" width="255.68" height="487.26" rx="33.35" ry="45.15"/>
   <rect class="fil2" x="723.02" y="2237.34" width="255.68" height="487.26" rx="33.35" ry="45.15"/>
   <rect class="fil2" x="2009.75" y="2237.34" width="255.68" height="487.26" rx="33.35" ry="45.15"/>
   <path class="fil3" d="M915.01 927.69l579.2 0 579.2 0c53.48,0 92.51,43.98 97.23,97.22l68.07 769.14 0 713.47c0,53.48 -43.79,97.23 -97.23,97.23l-647.27 0 -647.27 0c-53.44,0 -97.23,-43.75 -97.23,-97.23l0 -713.47 68.08 -769.14c4.71,-53.27 43.74,-97.22 97.22,-97.22z"/>
   <path class="fil4" d="M1494.22 927.69l579.19 0c53.48,0 92.51,43.98 97.22,97.23l68.08 769.14 0 713.47c0,53.47 -43.8,97.22 -97.23,97.22l-647.26 0 0 -1677.06z"/>
   <path class="fil5" d="M1758.48 1693.32l471.31 0 8.92 100.74 0 713.47c0,53.47 -43.8,97.22 -97.23,97.22l-647.26 0 -160.47 0 0 -403.17c0,-20.88 6.26,-40.54 17.05,-57.2 9.36,-14.47 22.25,-26.51 37.49,-34.93 -10.36,-12.26 -16.61,-28.01 -16.61,-45.03l0 -24.68c0,-25.93 10.68,-49.62 27.88,-66.85l-0.09 -0.1c17.13,-17.13 40.85,-27.78 66.95,-27.78l62.27 0c13.01,0 25.21,3.57 35.66,9.77l68.73 -173.77 0.11 0.04c4.58,-12.48 10.77,-23.92 18.25,-33.96 8.06,-10.78 17.78,-20.36 28.75,-28.31l0.19 0c11.28,-8.16 23.74,-14.58 36.95,-18.86l0.19 0c13.19,-4.28 26.98,-6.6 40.96,-6.6z"/>
   <path class="fil6" d="M2238.71 2295.5l0 212.03c0,53.47 -43.8,97.22 -97.23,97.22l-647.26 0 -160.47 0 0 -309.25 904.96 0z"/>
   <path class="fil2" d="M1127.51 1820.17l366.71 0 366.7 0c22.85,0 43.78,18.79 41.52,41.51l-45.59 454.56c-2.27,22.72 -18.7,41.51 -41.5,41.51l-321.13 0 -321.13 0c-22.81,0 -39.23,-18.79 -41.51,-41.51l-45.59 -454.56c-2.26,-22.72 18.68,-41.51 41.52,-41.51z"/>
   <path class="fil7" d="M1333.75 2357.75l0 -156.17c0,-20.88 6.26,-40.54 17.05,-57.2 9.36,-14.47 22.25,-26.51 37.49,-34.93 -10.36,-12.26 -16.61,-28.01 -16.61,-45.03l0 -24.68c0,-25.93 10.68,-49.62 27.88,-66.85l-0.09 -0.1c17.13,-17.13 40.85,-27.78 66.95,-27.78l62.27 0c13.01,0 25.21,3.57 35.66,9.77l53.24 -134.61 243.33 0c22.85,0 43.78,18.79 41.52,41.51l-45.59 454.56c-2.27,22.72 -18.7,41.51 -41.5,41.51l-321.13 0 -160.47 0z"/>
   <path class="fil1" d="M1871.03 2508.81l42.77 94.66c1.77,3.38 2.78,7.24 2.78,11.32 0,13.5 -10.96,24.46 -24.46,24.46l-795.84 0c-3.36,-0.03 -6.77,-0.72 -10.04,-2.2 -12.28,-5.53 -17.76,-20.01 -12.23,-32.3l42.78 -94.66c3.53,-9.19 12.42,-15.7 22.84,-15.7l709.13 0c9.3,0.04 18.2,5.4 22.27,14.42z"/>
   <path class="fil8" d="M1185.01 2291.6l309.21 0 309.2 0c6.18,0 11.21,5.03 11.21,11.21 0,6.17 -5.03,11.21 -11.21,11.21l-309.2 0 -309.21 0c-6.17,0 -11.21,-5.04 -11.21,-11.21 0,-6.18 5.04,-11.21 11.21,-11.21zm623.79 -61.1l-314.58 0 -314.58 0c-6.17,0 -11.2,5.03 -11.2,11.21 0,6.17 5.03,11.2 11.2,11.2l314.58 0 314.58 0c6.16,0 11.2,-5.03 11.2,-11.2 0,-6.18 -5.04,-11.21 -11.2,-11.21zm5.37 -61.1l-319.95 0 -319.96 0c-6.16,0 -11.2,5.04 -11.2,11.2 0,6.19 5.04,11.22 11.2,11.22l319.96 0 319.95 0c6.16,0 11.2,-5.03 11.2,-11.22 0,-6.16 -5.04,-11.2 -11.2,-11.2zm5.36 -61.1l-325.31 0 -325.32 0c-6.17,0 -11.21,5.04 -11.21,11.21 0,6.17 5.04,11.21 11.21,11.21l325.32 0 325.31 0c6.18,0 11.21,-5.04 11.21,-11.21 0,-6.17 -5.03,-11.21 -11.21,-11.21zm5.38 -61.1l-330.69 0 -330.69 0c-6.18,0 -11.21,5.04 -11.21,11.21 0,6.17 5.03,11.21 11.21,11.21l330.69 0 330.69 0c6.17,0 11.21,-5.04 11.21,-11.21 0,-6.17 -5.04,-11.21 -11.21,-11.21zm5.37 -61.09l-336.06 0 -336.07 0c-6.17,0 -11.21,5.03 -11.21,11.2 0,6.18 5.04,11.22 11.21,11.22l336.07 0 336.06 0c6.17,0 11.21,-5.04 11.21,-11.22 0,-6.17 -5.04,-11.2 -11.21,-11.2zm5.38 -61.1l-341.44 0 -341.44 0c-6.17,0 -11.2,5.03 -11.2,11.21 0,6.17 5.03,11.2 11.2,11.2l341.44 0 341.44 0c6.16,0 11.19,-5.03 11.19,-11.2 0,-6.18 -5.03,-11.21 -11.19,-11.21zm-688.25 -61.11l346.81 0 346.8 0c6.17,0 11.21,5.04 11.21,11.21 0,6.18 -5.04,11.21 -11.21,11.21l-346.8 0 -346.81 0c-6.17,0 -11.21,-5.03 -11.21,-11.21 0,-6.17 5.04,-11.21 11.21,-11.21z"/>
   <path class="fil9" d="M1333.75 2314.02l0 -22.42 160.47 0 309.2 0c6.18,0 11.21,5.03 11.21,11.21 0,6.17 -5.03,11.21 -11.21,11.21l-309.2 0 -160.47 0zm0 -61.11l0 -22.41 160.47 0 314.58 0c6.16,0 11.2,5.03 11.2,11.21 0,6.17 -5.04,11.2 -11.2,11.2l-314.58 0 -160.47 0zm0.47 -61.09c0.72,-7.71 2.3,-15.22 4.64,-22.42l155.36 0 319.95 0c6.16,0 11.2,5.04 11.2,11.2 0,6.19 -5.04,11.22 -11.2,11.22l-319.95 0 -160 0zm27.11 -61.1c7.72,-8.45 16.82,-15.67 26.96,-21.27l-0.96 -1.15 106.89 0 325.31 0c6.18,0 11.21,5.04 11.21,11.21 0,6.17 -5.03,11.21 -11.21,11.21l-325.31 0 -132.89 0zm10.54 -61.1c-0.13,-1.72 -0.19,-3.46 -0.19,-5.2l0 -17.22 122.54 0 330.69 0c6.17,0 11.21,5.04 11.21,11.21 0,6.17 -5.04,11.21 -11.21,11.21l-330.69 0 -122.35 0zm5.17 -61.09c2.84,-8.01 6.71,-15.54 11.49,-22.42l105.69 0 336.06 0c6.17,0 11.21,5.03 11.21,11.2 0,6.18 -5.04,11.22 -11.21,11.22l-336.06 0 -117.18 0zm68.1 -61.11c6.85,-1.57 13.98,-2.41 21.28,-2.41l62.27 0c6.32,0 12.44,0.84 18.27,2.41l-52.74 0 -49.08 0zm122.12 0l8.87 -22.41 259.53 0c6.16,0 11.19,5.03 11.19,11.21 0,6.17 -5.03,11.2 -11.19,11.2l-268.4 0zm24.17 -61.1l8.86 -22.42 240.73 0c6.17,0 11.21,5.04 11.21,11.21 0,6.18 -5.04,11.21 -11.21,11.21l-249.59 0z"/>
   <path class="fil1" d="M2132.78 1612.22l-638.56 57.78 -638.58 -57.78 -3.16 -0.15c-21.24,-1.75 -37.03,-20.4 -35.28,-41.62l37.92 -408.85c1.01,-20.4 17.88,-36.64 38.54,-36.64l1201.1 0c19.88,0 36.79,15.27 38.44,35.43l37.89 408.66c0.19,1.5 0.28,3.02 0.28,4.57 0,21.31 -17.28,38.6 -38.59,38.6z"/>
   <path class="fil2" d="M2132.78 1612.22l-26.02 2.36 -26.05 -313.48c-1.72,-20.79 -17.09,-37.93 -37.93,-37.93l-1097.1 0c-20.85,0 -36.22,17.16 -37.94,37.93l-26.04 313.48 -26.05 -2.36 -3.17 -0.16c-21.24,-1.74 -37.03,-20.38 -35.28,-41.61l37.92 -408.85c1.01,-20.4 17.88,-36.64 38.55,-36.64l1201.09 0c19.88,0 36.78,15.27 38.44,35.43l37.89 408.66c0.19,1.5 0.28,3.02 0.28,4.57 0,21.31 -17.28,38.6 -38.59,38.6z"/>
   <g>
    <path class="fil2" d="M1739.58 1438.37l174.38 0c35.03,0 57.08,29.3 63.68,63.67l23.38 122.1 -354.63 32.09 29.52 -154.19c6.58,-34.39 28.65,-63.67 63.67,-63.67z"/>
    <path class="fil2" d="M1074.46 1438.37l174.38 0c35.02,0 57.08,29.3 63.67,63.67l29.52 154.19 -354.62 -32.09 23.37 -122.1c6.58,-34.39 28.65,-63.67 63.68,-63.67z"/>
   </g>
   <path class="fil8" d="M1831.52 1602.87c31.84,0 61.13,10.82 84.46,28.96l-48.94 4.43c-11.15,-3.8 -23.1,-5.86 -35.54,-5.86 -19.46,0 -37.74,5.05 -53.61,13.93l-48.97 4.43c25.2,-28.17 61.83,-45.89 102.6,-45.89z"/>
   <rect class="fil10" x="1926.81" y="2233.24" width="229.25" height="124.51" rx="43.47" ry="43.47"/>
   <path class="fil0" d="M2112.58 2233.24l-142.3 0c-3.97,0 -7.82,0.55 -11.47,1.55 -5.81,7.39 -9.28,16.7 -9.28,26.77l0 37.57c0,23.91 19.56,43.47 43.47,43.47l142.3 0c3.97,0 7.82,-0.55 11.48,-1.55 5.8,-7.39 9.27,-16.7 9.27,-26.77l0 -37.57c0,-23.91 -19.55,-43.47 -43.47,-43.47z"/>
   <g>
    <circle class="fil3" cx="2022.36" cy="2302.68" r="32.22"/>
    <circle class="fil3" cx="2078.34" cy="2272.79" r="14.39"/>
   </g>
   <path class="fil11" d="M936.61 685.28l1115.13 0c12.51,0.08 23.4,9.36 25.05,22.1l33.03 252.75c0.38,1.74 0.58,3.54 0.58,5.39 0,14 -11.36,25.36 -25.36,25.36l-1181.74 0 -3.26 -0.3c-13.84,-1.8 -23.59,-14.49 -21.79,-28.32l33.03 -252.81c0.62,-13.44 11.73,-24.17 25.33,-24.17z"/>
   <rect class="fil1" x="1482.71" y="2287.64" width="255.68" height="487.26" rx="33.35" ry="45.15"/>
   <rect class="fil1" x="2445.81" y="2287.64" width="255.68" height="487.26" rx="33.35" ry="45.15"/>
   <path class="fil12" d="M1758.48 1742.24l673.77 0c18.48,0 35.64,5.97 49.62,16.1 13.81,9.99 24.5,24.14 30.28,40.64l98.25 248.37c8.94,20.96 8.68,43.66 1.01,63.5 -7.8,20.17 -23.28,37.37 -44.57,46.78 -5.43,2.4 -11.04,4.18 -16.72,5.38 -5.64,1.2 -11.55,1.78 -17.58,1.78l-1.31 0.01 -435.87 -40.26 -435.86 40.26 -1.31 -0.01c-6.03,0 -11.94,-0.58 -17.58,-1.78 -5.68,-1.2 -11.29,-2.98 -16.72,-5.38 -21.29,-9.41 -36.77,-26.61 -44.57,-46.78 -7.67,-19.84 -7.93,-42.54 1.02,-63.5l98.23 -248.38c5.79,-16.49 16.48,-30.64 30.29,-40.63 13.98,-10.13 31.14,-16.1 49.62,-16.1zm336.88 56.46l-336.88 0c-6.22,0 -11.93,1.97 -16.53,5.3 -4.81,3.48 -8.48,8.4 -10.33,14.05l-0.55 1.65 -98.69 249.37c-3.15,7.14 -3.13,14.84 -0.57,21.49 2.58,6.64 7.72,12.33 14.8,15.46 1.91,0.84 3.82,1.45 5.69,1.85 1.74,0.37 3.37,0.58 4.84,0.65l438.22 -40.47 438.23 40.47c1.47,-0.07 3.1,-0.28 4.84,-0.65 1.87,-0.4 3.78,-1.01 5.69,-1.85 7.08,-3.13 12.22,-8.82 14.8,-15.46 2.56,-6.65 2.58,-14.35 -0.57,-21.49l-98.69 -249.37 -0.55 -1.65c-1.85,-5.65 -5.52,-10.57 -10.33,-14.05 -4.6,-3.33 -10.31,-5.3 -16.53,-5.3l-336.89 0z"/>
   <path class="fil13" d="M2098.43 1742.24l333.82 0c18.48,0 35.64,5.97 49.62,16.1 13.81,9.99 24.5,24.14 30.28,40.64l98.25 248.37c8.94,20.96 8.68,43.66 1.01,63.5 -7.8,20.17 -23.28,37.37 -44.57,46.78 -5.43,2.4 -11.04,4.18 -16.72,5.38 -5.64,1.2 -11.55,1.78 -17.58,1.78l-1.31 0.01 -432.8 -39.98 0 -56.48 435.16 40.18c1.47,-0.07 3.1,-0.28 4.84,-0.65 1.87,-0.4 3.78,-1.01 5.69,-1.85 7.08,-3.13 12.22,-8.82 14.8,-15.46 2.56,-6.65 2.58,-14.35 -0.57,-21.49l-98.69 -249.37 -0.55 -1.65c-1.85,-5.65 -5.52,-10.57 -10.33,-14.05 -4.6,-3.33 -10.31,-5.3 -16.53,-5.3l-333.82 0 0 -56.46z"/>
   <path class="fil4" d="M1758.48 1770.47l336.88 0 336.89 0c25.03,0 46.26,16.3 53.66,38.87l98.24 248.37c12.55,28.38 -0.29,61.57 -28.67,74.11 -7.47,3.3 -15.27,4.84 -22.94,4.85l-437.18 -40.37 -437.17 40.37c-7.67,-0.01 -15.47,-1.55 -22.94,-4.85 -28.38,-12.54 -41.22,-45.73 -28.67,-74.11l98.24 -248.37c7.4,-22.57 28.63,-38.87 53.66,-38.87z"/>
   <path class="fil3" d="M1777.5 1851.56l317.86 0 317.86 0c19.49,0 36.03,12.69 41.79,30.27l46.12 116.6 -811.53 0 46.12 -116.6c5.76,-17.58 22.29,-30.27 41.78,-30.27z"/>
   <path class="fil14" d="M1823.9 1898.87l120.56 0c24.2,0 39.46,20.25 44.01,44.01l22.23 116.1 -253.05 0 22.23 -116.1c4.56,-23.77 19.81,-44.01 44.02,-44.01z"/>
   <path class="fil14" d="M2246.27 1898.87l120.56 0c24.21,0 39.46,20.25 44.02,44.01l22.23 116.1 -253.05 0 22.23 -116.1c4.55,-23.77 19.81,-44.01 44.01,-44.01z"/>
   <path class="fil8" d="M2306.14 2005.43c61.45,0 111.26,49.81 111.26,111.26 0,3.14 -0.13,6.24 -0.39,9.31l-22.17 -2.04c0.19,-2.4 0.3,-4.82 0.3,-7.27 0,-49.15 -39.85,-89 -89,-89 -46.09,0 -83.98,35.02 -88.55,79.89l-22.16 -2.04c5.6,-56.21 53.02,-100.11 110.71,-100.11z"/>
   <path class="fil11" d="M1466.42 1993.92l62.27 0c11.64,0 21.15,9.52 21.15,21.15l0 42.64 56.74 0 0 27.85 -77.89 0 -55.75 0 -31.18 0c-11.64,0 -21.15,-9.51 -21.15,-21.15l0 -24.67c0,-25.21 20.61,-45.82 45.81,-45.82z"/>
   <path class="fil8" d="M2723.33 1993.92l-62.27 0c-11.63,0 -21.15,9.52 -21.15,21.15l0 42.64 -56.73 0 0 27.85 77.88 0 55.76 0 31.18 0c11.64,0 21.15,-9.51 21.15,-21.15l0 -24.67c0,-25.21 -20.61,-45.82 -45.82,-45.82z"/>
   <rect class="fil2" x="2556.96" y="2309.87" width="255.68" height="487.26" rx="33.35" ry="45.15"/>
   <rect class="fil2" x="1371.55" y="2309.87" width="255.68" height="487.26" rx="33.35" ry="45.15"/>
   <path class="fil11" d="M2097.65 2059.71l497.66 -2.18c10.01,-0.42 20.25,1.83 29.64,7.04l154.33 85.47c19.67,8.83 33.36,28.58 33.36,51.53l0 414.4c-0.01,14.45 -5.52,28.9 -16.54,39.92l-24.21 24.2c-10.25,10.53 -24.58,17.07 -40.44,17.07l-633.8 0 -633.79 0c-15.86,0 -30.19,-6.54 -40.44,-17.07l-24.21 -24.2c-11.02,-11.02 -16.53,-25.47 -16.54,-39.92l0 -414.4c0,-22.95 13.69,-42.7 33.36,-51.53l154.33 -85.47c9.39,-5.21 19.63,-7.46 29.64,-7.04l497.65 2.18z"/>
   <path class="fil8" d="M2098.43 2059.7l496.88 -2.17c10.01,-0.42 20.25,1.83 29.64,7.04l154.33 85.47c19.67,8.83 33.36,28.58 33.36,51.53l0 414.4c-0.01,14.45 -5.52,28.9 -16.54,39.92l-24.21 24.2c-10.25,10.53 -24.58,17.07 -40.44,17.07l-633.02 0 0 -637.46z"/>
   <path class="fil8" d="M2583.18 2057.55l-154.39 148.18 -647.97 0 -177 -148.24c1.15,-0.02 2.28,-0.01 3.42,0.04l490.35 2.18 485.59 -2.16z"/>
   <polygon class="fil2" points="2583.18,2057.55 2428.79,2205.73 2098.43,2205.73 2098.43,2059.7 "/>
   <rect class="fil8" x="1294.88" y="867.14" width="398.68" height="63.49" rx="9.44" ry="26.14"/>
   <path class="fil1" d="M1738.63 2243.6l718.03 0c29.47,0 53.59,24.11 53.59,53.58l0 40.2c0,51.58 -42.19,93.76 -93.77,93.76l-637.65 0c-51.58,0 -93.77,-42.18 -93.77,-93.76l0 -40.2c0,-29.47 24.1,-53.58 53.57,-53.58z"/>
   <path class="fil2" d="M2473.27 2246.26c1.14,4.14 1.77,8.51 1.77,13.01l0 36.77c0,47.17 -38.6,85.76 -85.77,85.76l-583.24 0c-47.17,0 -85.76,-38.59 -85.76,-85.76l0 -36.77c0,-4.5 0.62,-8.87 1.77,-13.01 5.23,-1.72 10.81,-2.65 16.59,-2.65l718.04 0c5.79,0 11.36,0.93 16.6,2.65z"/>
   <path class="fil1" d="M2195 2381.8l-194.7 0c-6.18,-13.52 -9.63,-28.56 -9.63,-44.4 0,-40.42 22.41,-75.6 55.48,-93.8l103.02 0c33.06,18.2 55.46,53.38 55.46,93.8 0,15.84 -3.44,30.88 -9.63,44.4z"/>
   <path class="fil0" d="M1486.02 2200.64l131.48 33.14c23.26,5.86 37.48,29.7 31.62,52.95l-5.31 21.07c-10.26,40.69 -51.14,61.43 -92.67,55.36l-69.78 -10.2c-41.53,-6.07 -65.63,-51.95 -55.36,-92.67l7.07 -28.02c5.87,-23.26 29.69,-37.49 52.95,-31.63z"/>
   <path class="fil3" d="M1620.01 2234.5c21.76,6.88 34.76,29.83 29.12,52.23l-5.32 21.08c-10.26,40.69 -51.14,61.43 -92.67,55.35l-69.78 -10.2c-27.4,-4 -47.22,-25.34 -54.58,-51.09 7.14,4.52 15.24,7.66 24.15,8.96l69.79 10.2c41.53,6.08 82.4,-14.66 92.66,-55.35l5.32 -21.08c0.85,-3.37 1.27,-6.76 1.31,-10.1z"/>
   <circle class="fil11" cx="2097.65" cy="2337.38" r="65.84"/>
   <g>
    <circle class="fil0" cx="1046.26" cy="898.89" r="50.38"/>
    <circle class="fil3" cx="1046.26" cy="898.9" r="20.56"/>
    <circle class="fil10" cx="1060.65" cy="913.59" r="9.25"/>
   </g>
   <g>
    <circle class="fil0" cx="1161.82" cy="898.89" r="50.38"/>
    <circle class="fil3" cx="1161.82" cy="898.9" r="20.56"/>
    <circle class="fil10" cx="1176.21" cy="913.59" r="9.25"/>
   </g>
   <g>
    <circle class="fil0" cx="1942.17" cy="898.89" r="50.38"/>
    <circle class="fil3" cx="1942.17" cy="898.9" r="20.56"/>
    <circle class="fil10" cx="1956.56" cy="913.59" r="9.25"/>
   </g>
   <g>
    <circle class="fil0" cx="1826.61" cy="898.89" r="50.38"/>
    <circle class="fil3" cx="1826.61" cy="898.9" r="20.56"/>
    <circle class="fil10" cx="1841" cy="913.59" r="9.25"/>
   </g>
   <path class="fil0" d="M2709.28 2203.48l-131.47 33.14c-23.27,5.86 -37.49,29.7 -31.63,52.96l5.31 21.07c10.27,40.69 51.14,61.43 92.67,55.36l69.79 -10.2c41.53,-6.08 65.63,-51.96 55.36,-92.67l-7.08 -28.02c-5.87,-23.27 -29.68,-37.5 -52.95,-31.64z"/>
   <path class="fil3" d="M2575.3 2237.34c-21.76,6.88 -34.77,29.84 -29.12,52.24l5.32 21.07c10.25,40.69 51.13,61.43 92.66,55.36l69.79 -10.21c27.4,-4 47.22,-25.33 54.57,-51.09 -7.13,4.52 -15.24,7.66 -24.15,8.96l-69.78 10.21c-41.53,6.07 -82.41,-14.67 -92.67,-55.36l-5.32 -21.07c-0.85,-3.38 -1.27,-6.77 -1.3,-10.11z"/>
   <g>
    <circle class="fil15" cx="1542.34" cy="2274.9" r="32.22"/>
    <circle class="fil15" cx="1486.36" cy="2245.01" r="14.39"/>
   </g>
   <g>
    <circle class="fil15" cx="2652.96" cy="2274.9" r="32.22"/>
    <circle class="fil15" cx="2708.95" cy="2245.01" r="14.39"/>
   </g>
   <path class="fil1" d="M2494.47 2520.53l42.77 94.66c1.78,3.38 2.78,7.24 2.78,11.32 0,13.5 -10.96,24.46 -24.46,24.46l-835.84 0c-3.36,-0.03 -6.77,-0.72 -10.04,-2.2 -12.28,-5.53 -17.76,-20.01 -12.23,-32.3l42.78 -94.66c3.53,-9.19 12.42,-15.7 22.84,-15.7l749.13 0c9.31,0.04 18.2,5.4 22.27,14.42z"/>
   <path class="fil1" d="M1594.47 2636.55l42.78 -94.66c0.89,-1.69 1.58,-3.5 2.05,-5.4 0.47,-1.9 0.72,-3.88 0.72,-5.92 0,-13.5 -10.96,-24.46 -24.46,-24.46l-141.33 0c-13.17,0 -23.92,10.76 -23.92,23.91l0 97.04c0,13.15 10.74,23.91 23.92,23.91l97.98 0c9.3,-0.04 18.2,-5.4 22.26,-14.42z"/>
   <path class="fil1" d="M2600.8 2636.55l-42.78 -94.66c-0.89,-1.69 -1.58,-3.5 -2.05,-5.4 -0.47,-1.9 -0.72,-3.88 -0.72,-5.92 0,-13.5 10.96,-24.46 24.46,-24.46l141.33 0c13.17,0 23.92,10.76 23.92,23.91l0 97.04c0,13.15 -10.74,23.91 -23.92,23.91l-97.98 0c-9.3,-0.04 -18.2,-5.4 -22.26,-14.42z"/>
   <circle class="fil3" cx="1525.16" cy="2578.53" r="28.64"/>
   <circle class="fil3" cx="2670.09" cy="2578.53" r="28.64"/>
   <rect class="fil1" x="832.38" y="2271.76" width="203.74" height="110.65" rx="38.64" ry="38.64"/>
   <rect class="fil1" x="832.38" y="2425.81" width="203.74" height="61.72" rx="55.33" ry="30.86"/>
   <path class="fil2" d="M863.23 2425.81l142.04 0c2.73,0 5.37,0.36 7.9,1.04 1.77,3.88 2.75,8.18 2.75,12.7l0 0.01c0,16.97 -13.88,30.85 -30.85,30.85l-142.03 0c-2.73,0 -5.38,-0.36 -7.9,-1.04 -1.77,-3.88 -2.76,-8.18 -2.76,-12.7l0 -0.01c0,-16.97 13.88,-30.85 30.85,-30.85z"/>
   <path class="fil2" d="M871.02 2271.76l126.46 0c3.53,0 6.95,0.49 10.2,1.38 5.16,6.57 8.24,14.84 8.24,23.79l0 33.38c0,21.26 -17.38,38.64 -38.63,38.64l-126.47 0c-3.52,0 -6.95,-0.49 -10.19,-1.38 -5.16,-6.57 -8.25,-14.84 -8.25,-23.79l0 -33.38c0,-21.26 17.38,-38.64 38.64,-38.64z"/>
   <circle class="fil3" cx="924.15" cy="2448.11" r="10.25"/>
   <rect class="fil15" x="832.38" y="1793.64" width="29.69" height="224.67" rx="14.84" ry="25.43"/>
   <rect class="fil15" x="832.38" y="2066.95" width="29.69" height="76.79" rx="14.84" ry="8.69"/>
   <path class="fil16" d="M890.23 2286.38c19.69,0 35.63,15.94 35.63,35.62 0,19.68 -15.94,35.63 -35.63,35.63 -19.68,0 -35.63,-15.95 -35.63,-35.63 0,-19.68 15.95,-35.62 35.63,-35.62z"/>
   <path class="fil15" d="M890.23 2307.46c8.04,0 14.55,6.51 14.55,14.55 0,8.03 -6.51,14.54 -14.55,14.54 -8.03,0 -14.54,-6.51 -14.54,-14.54 0,-8.04 6.51,-14.55 14.54,-14.55z"/>
   <circle class="fil16" cx="971.96" cy="2322" r="35.63"/>
   <circle class="fil15" cx="971.97" cy="2322.01" r="14.54"/>
  </g>
 </g>
</svg>
