<?xml version="1.0" encoding="UTF-8"?>
<!DOCTYPE svg PUBLIC "-//W3C//DTD SVG 1.1//EN" "http://www.w3.org/Graphics/SVG/1.1/DTD/svg11.dtd">
<!-- Creator: CorelDRAW 2021.5 -->
<svg xmlns="http://www.w3.org/2000/svg" xml:space="preserve" width="25.3998mm" height="25.3998mm" version="1.1" style="shape-rendering:geometricPrecision; text-rendering:geometricPrecision; image-rendering:optimizeQuality; fill-rule:evenodd; clip-rule:evenodd"
viewBox="0 0 2539.98 2539.98"
 xmlns:xlink="http://www.w3.org/1999/xlink"
 xmlns:xodm="http://www.corel.com/coreldraw/odm/2003">
 <defs>
  <style type="text/css">
   <![CDATA[
    .fil0 {fill:#D4EDFC}
    .fil1 {fill:#A2D9F7}
    .fil5 {fill:#04A1C4}
    .fil6 {fill:#0C8AA6}
    .fil8 {fill:#0E404D}
    .fil4 {fill:#105566}
    .fil7 {fill:#04A1C4;fill-rule:nonzero}
    .fil2 {fill:#0E404D;fill-rule:nonzero}
    .fil3 {fill:#105566;fill-rule:nonzero}
   ]]>
  </style>
 </defs>
 <g id="Слой_x0020_1">
  <metadata id="CorelCorpID_0Corel-Layer"/>
  <g id="_3196301752064">
   <rect class="fil0" x="466.44" y="1931.22" width="1810.72" height="184.93" rx="77.61" ry="92.47"/>
   <rect class="fil0" x="262.8" y="311.78" width="1016.83" height="1424.05"/>
   <path class="fil1" d="M1279.63 735.61l0 60.39 -34.89 0c-16.23,0 -31,6.62 -41.69,17.28l0.06 0.06c-10.7,10.7 -17.36,25.44 -17.36,41.63l0 104.04 93.88 0 0 776.83 -577.95 0 0 -361.1 48.57 17.98 0 -35.66 -72.35 -26.78 0 -241.49c0,-71.39 58.4,-129.78 129.79,-129.78l72.34 0 221.57 0 0 -104.04c0,-32.86 13.43,-62.72 35.03,-84.33l0.13 0c21.62,-21.61 51.44,-35.03 84.21,-35.03l23.77 0 34.89 0z"/>
   <path class="fil1" d="M445.33 492.86l651.78 0 0 37.43 -651.78 0 0 -37.43zm0 760.73l322.08 0 0 37.42 -322.08 0 0 -37.42zm0 -95.09l651.78 0 0 37.42 -651.78 0 0 -37.42zm0 -95.09l651.78 0 0 37.42 -651.78 0 0 -37.42zm0 -95.09l651.78 0 0 37.42 -651.78 0 0 -37.42zm0 -95.09l651.78 0 0 37.42 -651.78 0 0 -37.42zm0 -95.1l651.78 0 0 37.43 -651.78 0 0 -37.43zm0 -95.09l651.78 0 0 37.43 -651.78 0 0 -37.43zm0 -95.09l651.78 0 0 37.43 -651.78 0 0 -37.43z"/>
   <g>
    <path class="fil2" d="M1171.86 808.49l310.91 0c32.85,0 62.71,13.42 84.32,35.03 21.61,21.61 35.04,51.47 35.04,84.33l0 203.1c0,32.77 -13.43,62.59 -35.04,84.21l0 0.12c-21.61,21.61 -51.47,35.03 -84.32,35.03l-310.91 0c-32.77,0 -62.59,-13.42 -84.21,-35.03l-0.12 -0.12c-21.61,-21.62 -35.03,-51.44 -35.03,-84.21l0 -203.1c0,-32.86 13.42,-62.72 35.03,-84.33l0.12 0c21.62,-21.61 51.44,-35.03 84.21,-35.03zm310.91 60.38l-310.91 0c-16.23,0 -30.99,6.63 -41.69,17.29l0.06 0.06c-10.7,10.69 -17.35,25.44 -17.35,41.63l0 203.1c0,16.23 6.63,30.99 17.29,41.69 10.7,10.66 25.46,17.29 41.69,17.29l310.91 0c16.18,0 30.93,-6.65 41.63,-17.35l0.06 0.06c10.66,-10.7 17.29,-25.46 17.29,-41.69l0 -203.1c0,-16.19 -6.66,-30.94 -17.35,-41.63 -10.7,-10.7 -25.45,-17.35 -41.63,-17.35z"/>
    <path class="fil3" d="M1148.09 808.49l310.9 0c32.86,0 62.72,13.42 84.33,35.03 21.61,21.61 35.04,51.47 35.04,84.33l0 203.1c0,32.77 -13.43,62.59 -35.04,84.21l0 0.12c-21.61,21.61 -51.47,35.03 -84.33,35.03l-310.9 0c-32.77,0 -62.59,-13.42 -84.21,-35.03l-0.12 -0.12c-21.61,-21.62 -35.03,-51.44 -35.03,-84.21l0 -203.1c0,-32.86 13.42,-62.72 35.03,-84.33l0.12 0c21.62,-21.61 51.44,-35.03 84.21,-35.03zm310.9 60.38l-310.9 0c-16.23,0 -31,6.63 -41.69,17.29l0.06 0.06c-10.7,10.69 -17.35,25.44 -17.35,41.63l0 203.1c0,16.23 6.62,30.99 17.29,41.69 10.69,10.66 25.46,17.29 41.69,17.29l310.9 0c16.19,0 30.94,-6.65 41.63,-17.35l0.06 0.06c10.67,-10.7 17.29,-25.46 17.29,-41.69l0 -203.1c0,-16.19 -6.65,-30.94 -17.35,-41.63 -10.69,-10.7 -25.44,-17.35 -41.63,-17.35z"/>
   </g>
   <rect class="fil4" x="633.64" y="1031.89" width="1485.84" height="1006.37" rx="134.52" ry="126.13"/>
   <path class="fil5" d="M734.81 2038.26l1173.97 0c71.38,0 129.79,-58.4 129.79,-129.78l0 -507.62 -0.01 0 0 31.45 -716.77 265.35 -716.76 -265.35 0 476.17c0,71.37 58.39,129.78 129.78,129.78z"/>
   <path class="fil6" d="M1289.14 1714.72l0 1.16c0,29.68 24.27,53.96 53.96,53.96l48.28 0c29.69,0 53.96,-24.28 53.96,-53.96l0 -34.81 -123.55 45.74 -32.65 -12.09z"/>
   <path class="fil6" d="M1449.57 1031.88l-255.55 0 -459.21 0c-71.39,0 -129.78,58.4 -129.78,129.78l0 241.5 716.76 265.35 716.77 -265.35 0 -241.5c0,-71.38 -58.39,-129.78 -129.78,-129.78l-459.21 0z"/>
   <polygon class="fil7" points="689.14,1383.4 1321.79,1617.6 1954.45,1383.4 1958.69,1394.97 1321.79,1630.75 684.9,1394.97 "/>
   <rect class="fil1" x="1282.52" y="1558.28" width="129.66" height="183.87" rx="44.79" ry="44.79"/>
   <rect class="fil0" x="1258.74" y="1558.28" width="129.66" height="183.87" rx="44.79" ry="44.79"/>
   <g>
    <rect class="fil1" transform="matrix(0.137047 -0.506902 0.137047 0.506902 1777.27 1160.39)" width="234.65" height="234.65"/>
    <rect class="fil8" x="1777.27" y="480.1" width="64.32" height="680.29"/>
    <rect class="fil4" x="1777.27" y="480.1" width="32.71" height="680.29"/>
    <rect class="fil6" x="1781.97" y="434.55" width="54.93" height="45.55"/>
    <rect class="fil5" x="1762.55" y="469.74" width="93.75" height="29.23"/>
    <rect class="fil5" x="1777.29" y="513.31" width="64.29" height="10.64"/>
    <rect class="fil5" transform="matrix(6.83848E-14 -7.31756 0.0830667 6.23475E-15 1850.86 735.474)" width="36.31" height="124.79"/>
   </g>
  </g>
 </g>
</svg>
