<?xml version="1.0" encoding="UTF-8"?>
<!DOCTYPE svg PUBLIC "-//W3C//DTD SVG 1.1//EN" "http://www.w3.org/Graphics/SVG/1.1/DTD/svg11.dtd">
<!-- Creator: CorelDRAW 2021.5 -->
<svg xmlns="http://www.w3.org/2000/svg" xml:space="preserve" width="25.3998mm" height="25.3998mm" version="1.1" style="shape-rendering:geometricPrecision; text-rendering:geometricPrecision; image-rendering:optimizeQuality; fill-rule:evenodd; clip-rule:evenodd"
viewBox="0 0 2539.98 2539.98"
 xmlns:xlink="http://www.w3.org/1999/xlink"
 xmlns:xodm="http://www.corel.com/coreldraw/odm/2003">
 <defs>
  <style type="text/css">
   <![CDATA[
    .fil0 {fill:#D4EDFC}
    .fil8 {fill:#A2D9F7}
    .fil1 {fill:#04A1C4}
    .fil2 {fill:#0C8AA6}
    .fil3 {fill:#105566}
    .fil6 {fill:#FEFEFE;fill-rule:nonzero}
    .fil4 {fill:#D4EDFC;fill-rule:nonzero}
    .fil5 {fill:#0E404D;fill-rule:nonzero}
    .fil7 {fill:#105566;fill-rule:nonzero}
   ]]>
  </style>
 </defs>
 <g id="Слой_x0020_1">
  <metadata id="CorelCorpID_0Corel-Layer"/>
  <g id="_3196304624624">
   <rect class="fil0" x="271.53" y="2217.42" width="2075.95" height="184.93" rx="88.97" ry="92.47"/>
   <path class="fil1" d="M1091.46 2081.13l480.93 0 0 -1004.7 144.31 185.51 273.75 -199.72 -252.04 -348.43c-10.64,-22.53 -30.87,-37.45 -53.51,-42.18l-286.49 -78.84 -2.33 0.02c-18.69,64.29 -147.85,114.07 -304.41,114.07 -156.57,0 -285.73,-49.79 -304.41,-114.07l-2.74 -0.02 -286.49 78.84c-22.64,4.73 -42.88,19.65 -53.51,42.18l-252.04 348.43 273.75 199.72 144.3 -185.51 0 1004.7 480.93 0z"/>
   <polygon class="fil2" points="1128.98,2081.13 1572.39,2081.13 1572.39,1355.25 890.56,1355.25 890.56,2081.13 "/>
   <path class="fil3" d="M784.93 592.77l2.27 -0.21c18.46,64.4 147.72,114.3 304.47,114.3 156.74,0 286.01,-49.9 304.46,-114.3l2.28 0.21c0,169.41 -137.34,306.74 -306.74,306.74 -169.4,0 -306.74,-137.33 -306.74,-306.74z"/>
   <path class="fil4" d="M1504.01 622.32c-1.63,22.99 -5.1,45.42 -10.58,68.42l-9.52 -2.26c5.46,-22.88 8.98,-45.61 10.52,-68.78l9.58 2.62zm-893.47 1419.19l0 9.78 17.88 0 0 -9.78 -17.88 0zm961.85 9.78l0 -9.78 -25.01 0 0 9.78 25.01 0zm-891.99 -1415.97c3.46,33.04 10.57,64.98 21.72,96.27l9.2 -3.32c-10.93,-30.1 -17.86,-62.16 -21.19,-93.99l-9.73 1.04zm32.7 123.85c13.44,30.43 30.06,58.48 50.25,84.91l7.77 -5.95c-19.73,-25.81 -35.97,-53.22 -49.1,-82.94l-8.92 3.98zm69.14 107.8c21.52,24.6 47.01,46.82 73.78,65.54l5.58 -8.02c-26.17,-18.31 -51,-39.95 -72.05,-64l-7.31 6.48zm98.74 81.6c28.84,17.02 58.33,29.99 90.33,39.84l2.79 -9.37c-33.57,-12.58 -56.53,-20.23 -88.15,-38.88l-4.97 8.41zm118.99 47.43c32,7.33 65.36,10.65 98.17,10.15l-0.18 -9.78c-31.97,0.52 -64.67,-2.77 -95.84,-9.91l-2.15 9.54zm127.8 8.63c31.75,-2.53 66.54,-9.72 96.62,-20.19l-3.18 -9.24c-32.17,9.9 -60.51,16.99 -94.3,19.71l0.86 9.72zm124.36 -30.72c30.29,-12.77 59.33,-29.31 85.71,-48.95l-5.86 -7.83c-25.79,19.2 -54.05,35.29 -83.67,47.78l3.82 9zm108.89 -67.48c24.71,-21.31 47.79,-46.12 66.68,-72.75l-7.97 -5.66c-19.18,26.45 -40.38,49.68 -65.12,71.04l6.41 7.37zm83.12 -97.45c17.42,-28.59 30.92,-57.82 41.24,-89.67l-9.32 -2.96c-10.05,31.08 -23.28,59.66 -40.28,87.55l8.36 5.08zm73.9 1232.53l0 9.78 -97.75 0 0 -9.78 97.75 0zm-127.08 0l0 9.78 -97.76 0 0 -9.78 97.76 0zm-127.09 0l0 9.78 -97.76 0 0 -9.78 97.76 0zm-127.09 0l0 9.78 -97.76 0 0 -9.78 97.76 0zm-127.08 0l0 9.78 -97.77 0 0 -9.78 97.77 0zm-127.1 0l0 9.78 -97.76 0 0 -9.78 97.76 0zm-127.08 0l0 9.78 -97.76 0 0 -9.78 97.76 0z"/>
   <path class="fil5" d="M1065.93 518.53l0 -65.76c-33.43,-5.47 -63.38,-21.42 -86.33,-44.37 -28.78,-28.68 -46.55,-68.36 -46.55,-112.15 0,-43.81 17.77,-83.48 46.46,-112.17 28.69,-28.69 68.36,-46.46 112.16,-46.46 43.8,0 83.47,17.77 112.16,46.46 28.69,28.69 46.47,68.36 46.47,112.17l-51.48 0c0,-29.58 -12.01,-56.39 -31.39,-75.77 -19.38,-19.37 -46.18,-31.38 -75.76,-31.38 -29.58,0 -56.39,12.01 -75.77,31.38 -19.37,19.38 -31.37,46.19 -31.37,75.77 0,29.58 12,56.38 31.37,75.75 19.34,19.4 46.15,31.38 75.77,31.38l25.74 0 0 115.15 281 74.24 0 0.01c0,17.73 -1.52,35.1 -4.41,52l-35.28 -9.33 -267.26 -70.59 -276.1 72.99 -26.05 6.88c-2.88,-16.89 -4.38,-34.25 -4.38,-51.95l0 -0.01 281 -74.24z"/>
   <g>
    <polygon class="fil6" points="2102.48,2272.03 1038.45,2272.03 1038.45,1475.97 2146.55,1475.97 2146.55,2272.03 "/>
    <path class="fil7" d="M1096.8 2203.7l991.4 0 0 -659.4 -991.4 0 0 659.4zm1038.29 93.78l-1132.08 0 0 -846.96 1178.97 0 0 846.96 -46.89 0z"/>
    <path class="fil5" d="M1096.8 2203.7l991.4 0 0 -659.4 -991.4 0 0 659.4zm973.6 29.09l-1002.7 0 0 -717.58 1049.59 0 0 717.58 -46.89 0z"/>
    <path class="fil8" d="M1232.24 1679.74l720.52 0 0 388.52 -720.52 0 0 -388.52zm109.41 56.12c24.89,0 45.07,20.18 45.07,45.07 0,24.89 -20.18,45.07 -45.07,45.07 -24.89,0 -45.07,-20.18 -45.07,-45.07 0,-24.89 20.18,-45.07 45.07,-45.07z"/>
    <polygon class="fil2" points="1232.24,1965.45 1232.24,2068.26 1952.76,2068.26 1952.76,1782.45 1873.06,1738.86 1582.52,1868.53 1522.78,1835.78 "/>
   </g>
  </g>
 </g>
</svg>
