<?xml version="1.0" encoding="UTF-8"?>
<!DOCTYPE svg PUBLIC "-//W3C//DTD SVG 1.1//EN" "http://www.w3.org/Graphics/SVG/1.1/DTD/svg11.dtd">
<!-- Creator: CorelDRAW 2021.5 -->
<svg xmlns="http://www.w3.org/2000/svg" xml:space="preserve" width="25.3998mm" height="25.3998mm" version="1.1" style="shape-rendering:geometricPrecision; text-rendering:geometricPrecision; image-rendering:optimizeQuality; fill-rule:evenodd; clip-rule:evenodd"
viewBox="0 0 2539.98 2539.98"
 xmlns:xlink="http://www.w3.org/1999/xlink"
 xmlns:xodm="http://www.corel.com/coreldraw/odm/2003">
 <defs>
  <style type="text/css">
   <![CDATA[
    .fil0 {fill:#D4EDFC}
    .fil1 {fill:#A2D9F7}
    .fil3 {fill:#04A1C4}
    .fil4 {fill:#0C8AA6}
    .fil2 {fill:#0E404D}
    .fil5 {fill:#105566}
   ]]>
  </style>
 </defs>
 <g id="Слой_x0020_1">
  <metadata id="CorelCorpID_0Corel-Layer"/>
  <g id="_3196308883856">
   <path class="fil0" d="M283.72 568.95l779.77 0 -77.52 136.07 -702.25 32 0 -168.07zm1972.54 796.56l0 289.51 -336.62 65.74 -146.95 -489.12 483.57 133.87zm-1313.53 -584.63l-383.94 673.84 -275.07 -205.96 0 -437.84 659.01 -30.04zm-420.74 738.42l-238.27 418.18 0 -596.58 238.27 178.4zm1392.02 439.69l-1557.58 0 550.94 -966.91 781.1 216.24 225.54 750.67zm342.25 -228.6l0 228.6 -265.04 0 -50.19 -167.05 315.23 -61.55zm-1107.8 -1161.44l1107.8 0 0 719.96 -1311.19 -362.99 203.39 -356.97z"/>
   <path class="fil1" d="M416.8 568.95l301.85 0c-23.73,47.09 -41.6,97.62 -52.66,150.65l-285.79 13.03c7.15,-56.36 19.53,-111.08 36.6,-163.68zm1706.37 0c28.35,87.3 43.73,180.44 43.73,277.18 0,106.04 -41.17,241.46 -105.79,388.76l-261.35 -72.36c55.39,-92.51 87.23,-200.73 87.23,-316.4 0,-99.69 -23.67,-193.83 -65.66,-277.18l301.84 0zm-93.12 733.94c-43.79,92.36 -95.38,188.18 -150.79,283.49l-106.57 -354.74 257.36 71.25zm-202.05 369.83c-59.9,98.88 -122.57,195.81 -183.39,286.27l-749.25 0c-94.87,-141.12 -194.27,-298.04 -280.59,-453.39l163.44 -286.85c112.67,148.48 291.01,244.39 491.77,244.39 172.14,0 327.79,-70.52 439.71,-184.21l118.31 393.79zm-1254.65 -243.56c-116.39,-220.33 -200.27,-431.6 -200.27,-583.03 0,-13.18 0.34,-26.28 0.9,-39.32l281.22 -12.82c-1.44,17.19 -2.22,34.58 -2.22,52.14 0,110.31 28.98,213.83 79.69,303.43l-159.32 279.6z"/>
   <rect class="fil0" x="846.95" y="2197.65" width="846.07" height="184.93" rx="36.26" ry="92.47"/>
   <path class="fil2" d="M1306.82 157.38c413.77,0 749.19,335.43 749.19,749.19 0,413.76 -749.19,1362.16 -749.19,1362.16l-73.67 0c-140.2,-182.81 -675.52,-998.52 -675.52,-1362.16 0,-413.76 335.43,-749.19 749.19,-749.19zm0 233.81c284.64,0 515.38,230.75 515.38,515.38 0,284.63 -230.74,515.37 -515.38,515.37 -284.63,0 -515.37,-230.74 -515.37,-515.37 0,-284.63 230.74,-515.38 515.37,-515.38z"/>
   <path class="fil3" d="M1233.15 157.38c413.76,0 749.19,335.43 749.19,749.19 0,413.76 -749.19,1362.16 -749.19,1362.16 0,0 -749.19,-948.4 -749.19,-1362.16 0,-413.76 335.42,-749.19 749.19,-749.19zm0 233.81c284.63,0 515.37,230.75 515.37,515.38 0,284.63 -230.74,515.37 -515.37,515.37 -284.64,0 -515.38,-230.74 -515.38,-515.37 0,-284.63 230.74,-515.38 515.38,-515.38z"/>
   <path class="fil4" d="M1233.15 157.38c413.76,0 749.19,335.43 749.19,749.19 0,413.76 -749.19,1362.16 -749.19,1362.16l0 -846.79c284.63,0 515.37,-230.74 515.37,-515.37 0,-284.63 -230.74,-515.38 -515.37,-515.38l0 -233.81z"/>
   <circle class="fil5" cx="1292.09" cy="906.57" r="361.16"/>
   <circle class="fil3" cx="1233.15" cy="906.57" r="361.16"/>
  </g>
 </g>
</svg>
